<svg width="56" height="56" viewBox="0 0 56 56" fill="none" xmlns="http://www.w3.org/2000/svg">
<path d="M45.8501 12.6995L45.8501 12.6994C45.4481 12.4916 45.0566 12.2637 44.6773 12.0168L44.6726 12.0137C43.5814 11.2922 42.5809 10.4422 41.6927 9.4818L41.6849 9.47339L41.6774 9.46477C39.4472 6.9129 38.6073 4.3134 38.2973 2.48187L38.1365 1.53221H38.1836C38.1587 1.2637 38.1457 1.02287 38.1402 0.813838H30.181V37.1891V37.198C30.181 37.687 30.181 38.1904 30.1598 38.6911C30.1587 38.7591 30.1532 38.8412 30.1507 38.8774C30.1505 38.902 30.1493 38.9416 30.1446 38.9887L30.1425 39.017C30.031 40.4844 29.5607 41.9018 28.7728 43.1447C27.9851 44.3874 26.9041 45.4175 25.6248 46.1444C24.2893 46.9043 22.7788 47.3028 21.2422 47.3009M45.8501 12.6995L21.2433 30.1545V29.3407C16.3081 29.3407 12.3172 33.3638 12.3172 38.3208C12.3172 43.2773 16.3075 47.3003 21.2422 47.3009M45.8501 12.6995L45.8607 12.7047C47.9342 13.7386 50.0087 14.2143 51.4539 14.2777M45.8501 12.6995L51.4539 14.2777M21.2422 47.3009L21.2433 46.487V47.3009C21.2429 47.3009 21.2426 47.3009 21.2422 47.3009ZM38.9842 18.7229V19.6938C38.9365 19.6624 38.8909 19.6326 38.8484 19.6047C38.7677 19.5518 38.6987 19.5067 38.6466 19.4729C38.5879 19.4349 38.5649 19.4204 38.5655 19.4207L38.9842 18.7229ZM38.9842 18.7229C39.0394 18.756 39.4162 19.0035 39.798 19.2551V18.7229H38.9842ZM51.4539 14.2777C51.7542 14.2909 52.0274 14.2863 52.2677 14.2652L46.2238 11.9764C48.2077 12.9656 50.1545 13.3997 51.4539 13.4632V14.2777ZM11.5713 53.0177L11.6089 52.9638L12.0208 52.3736C11.58 52.066 11.1531 51.7399 10.7412 51.3963V52.4412C10.9964 52.6396 11.2566 52.8319 11.5217 53.0177C11.5282 53.0223 11.5348 53.0268 11.5413 53.0314L11.5551 53.0177H11.5713ZM11.5713 53.0177H11.5943M11.5713 53.0177L11.5647 53.0273L11.5784 53.041M11.6017 53.0177H12.3689V53.041V53.5442C12.1045 53.3867 11.8406 53.2192 11.5784 53.041M11.6017 53.0177L12.1539 52.4656L12.1306 52.4423L12.0987 52.4104C12.0778 52.3963 12.0568 52.3821 12.0358 52.3679L11.6773 52.8955L11.5943 53.0177M11.6017 53.0177H11.5943M11.6017 53.0177L11.5784 53.041M11.5943 53.0177L11.5784 53.041M22.9273 30.3313C23.2017 30.3898 23.4733 30.4628 23.7409 30.55L23.7419 29.6985C23.4737 29.6198 23.2022 29.5539 22.9283 29.5011L22.9273 30.3313ZM51.4539 22.9456C51.9569 22.9821 52.2677 22.995 52.2677 22.995V22.1804L52.2673 22.1803C52.2435 22.1792 52.2076 22.1775 52.1606 22.175C52.0667 22.17 51.9287 22.1622 51.7547 22.1507C51.6638 22.1447 51.5631 22.1377 51.4539 22.1296V22.9456ZM46.5963 21.4039C46.596 21.4038 46.5956 21.4037 46.5953 21.4036C46.5951 21.4036 46.5949 21.4035 46.5947 21.4034L46.386 22.1901L46.5963 21.4039ZM41.0992 19.1389L41.097 19.1374L41.0959 19.1368L41.0936 19.1354C41.0937 19.1354 41.0939 19.1355 40.6547 19.8207L41.1036 19.1419L41.1036 19.1418L41.1034 19.1417L41.1025 19.1411L41.0992 19.1389ZM33.9659 49.4278L33.9657 49.4281L34.5991 49.939C33.9657 49.4281 33.9658 49.4279 33.9659 49.4278ZM21.3961 55.9972C21.3634 55.184 21.3636 55.184 21.3638 55.184C21.3636 55.184 21.3634 55.184 21.3632 55.184L21.3961 55.9972ZM10.5101 25.4083C10.5119 25.4067 10.5137 25.4052 10.5156 25.4036C10.5174 25.4021 10.5192 25.4005 10.521 25.3989L9.98722 24.7846L10.5101 25.4083ZM22.9387 20.7565L22.9378 21.4879C23.1749 21.5085 23.4118 21.534 23.6483 21.5646L23.7525 20.7575L22.9387 20.7565ZM5.59241 44.3253V44.204C5.57421 44.1556 5.5584 44.1124 5.545 44.0749L4.8439 44.3253L4.77857 44.3486H5.59241V44.3253ZM8.02852 48.607L7.38931 49.1107L8.0298 48.6086C8.02956 48.6083 8.02932 48.608 8.02908 48.6077C8.02889 48.6075 8.0287 48.6072 8.02852 48.607ZM37.0652 44.2852C37.0648 44.2862 37.0644 44.2873 37.064 44.2884C37.0636 44.2894 37.0632 44.2904 37.0628 44.2914L37.8235 44.5808L37.0652 44.2852Z" stroke="url(#paint0_linear_2011_3966)" stroke-width="1.62768"/>
<defs>
<linearGradient id="paint0_linear_2011_3966" x1="-5.07889" y1="27.3796" x2="56.303" y2="12.2691" gradientUnits="userSpaceOnUse">
<stop stop-color="white"/>
<stop offset="1" stop-color="#01F28E"/>
</linearGradient>
</defs>
</svg>
