<svg width="57" height="57" viewBox="0 0 57 57" fill="none" xmlns="http://www.w3.org/2000/svg">
<g clip-path="url(#clip0_2011_3977)">
<path d="M54.8419 20.7674L54.842 20.7674C54.6755 18.5471 54.4284 16.8447 54.0854 15.6044C53.462 13.3601 52.0536 11.9512 49.8099 11.3273C48.4575 10.9601 45.9862 10.6549 42.3349 10.445C38.7053 10.2365 33.9674 10.1246 28.1169 10.1244L23.6803 10.2918L23.6649 10.2924H23.6496C20.5845 10.2924 17.2671 10.376 13.6413 10.5712L13.6345 10.5716L13.6345 10.5715C9.92901 10.74 7.60982 10.9909 6.39488 11.3268C4.15092 11.9503 2.74216 13.3587 2.1183 15.6022C1.3645 18.3766 0.916819 22.7882 0.915404 28.8816L1.08133 31.2046L1.0834 31.2335V31.2625C1.0834 32.9156 1.16606 34.8237 1.3603 37.0436L1.36118 37.0537L1.36112 37.0537C1.52765 39.2741 1.77476 40.9765 2.11776 42.2169C2.74124 44.4612 4.14977 45.8701 6.39371 46.4939C7.74617 46.8611 10.2174 47.1662 13.8683 47.376C17.4978 47.5846 22.2358 47.6965 28.0862 47.6967L32.5229 47.5293L32.5382 47.5287H32.5536C35.6187 47.5287 38.9361 47.4451 42.5618 47.2499L42.5686 47.2495C46.2736 47.0811 48.5927 46.8303 49.8077 46.4944L54.8419 20.7674ZM54.8419 20.7674L54.8428 20.7775M54.8419 20.7674L54.8428 20.7775M54.8428 20.7775C55.0371 22.9974 55.1197 24.9055 55.1197 26.5585V26.5876M54.8428 20.7775L55.1197 26.5876M55.1197 26.5876L55.1218 26.6165M55.1197 26.5876L55.1218 26.6165M55.1218 26.6165L55.2877 28.9395M55.1218 26.6165L55.2877 28.9395M55.2877 28.9395C55.2863 35.0325 54.8387 39.4439 54.085 42.2183C53.4612 44.4621 52.0525 45.8706 49.8086 46.4942L55.2877 28.9395ZM21.6877 37.3105V38.721L22.9088 38.0151L37.4408 29.6151L38.6598 28.9105L37.4408 28.206L22.9088 19.806L21.6877 19.1001L21.6877 20.5105V37.3105Z" stroke="url(#paint0_linear_2011_3977)" stroke-width="1.62768"/>
</g>
<defs>
<linearGradient id="paint0_linear_2011_3977" x1="-10.0676" y1="28.4763" x2="54.4298" y2="2.3046" gradientUnits="userSpaceOnUse">
<stop stop-color="white"/>
<stop offset="1" stop-color="#01F28E"/>
</linearGradient>
<clipPath id="clip0_2011_3977">
<rect width="56" height="56" fill="white" transform="translate(0.101562 0.910156)"/>
</clipPath>
</defs>
</svg>
