<svg aria-hidden="true" style="position:absolute;width:0;height:0;overflow:hidden" xmlns="http://www.w3.org/2000/svg">
  <defs>
    <symbol id="icon-Icon-label" viewBox="0 0 29 32">
      <path fill="#fff" style="fill:var(--color1, #fff)" d="M8.724 27.529s6.549.032 8.71 1.839l-1.129.403s-3.065-2.178-8.404-1.774c.274-.242.823-.468.823-.468z"/>
      <path fill="#fff" style="fill:var(--color1, #fff)" d="M17.935 27.529s-6.549.032-8.71 1.839l1.129.403s3.065-2.178 8.404-1.774c-.274-.242-.823-.468-.823-.468zM3.208 4.98c1.371-.887 2.79-2.21 5.226-3.113-1.774.016-4.581 1.129-5.226 3.113zM4.789 5.254c-.29.129-.5.21-.742.274-.452.113-.823.145-1.21.274a2.245 2.245 0 0 0-.774.436 2.47 2.47 0 0 0-.452.484c-.226.323-.419.839-.419 1.226.177-.177.339-.323.516-.452.274-.194.532-.339.807-.452a4.62 4.62 0 0 0 .565-.258c.758-.387 1.194-.936 1.71-1.532z"/>
      <path fill="#fff" style="fill:var(--color1, #fff)" d="M1.176 7.964c0-.565.516-1.516.823-1.887a4.12 4.12 0 0 0 .516-.855c.258-.532.484-1.145.548-1.613-.323.194-.661.403-1.016.677C1.273 4.915.837 5.592.95 6.512c.032.371.032 1.145.226 1.452zM2.547 8.06c-.258.177-.452.29-.661.387-.419.177-.774.274-1.113.468a2.046 2.046 0 0 0-.661.565 2.343 2.343 0 0 0-.339.548c-.145.355-.226.903-.129 1.274a3.51 3.51 0 0 1 .403-.532 2.96 2.96 0 0 1 .694-.581c.177-.113.339-.226.5-.339.629-.5.936-1.129 1.306-1.79z"/>
      <path fill="#fff" style="fill:var(--color1, #fff)" d="M-.372 11.319c-.129-.548.161-1.581.387-1.984.145-.29.242-.597.306-.919.129-.565.21-1.194.177-1.661-.274.258-.548.5-.855.839-.613.742-.887 1.484-.581 2.371.113.339.306 1.081.565 1.355zM1.208 10.867a4.13 4.13 0 0 1-.565.597c-.371.306-.726.5-1.016.79-.242.242-.387.5-.5.774a2.393 2.393 0 0 0-.161.677 2.72 2.72 0 0 0 .323 1.403c.065-.258.145-.468.226-.677a3.5 3.5 0 0 1 .532-.806c.145-.177.29-.339.403-.5.516-.71.613-1.452.758-2.258zM.579 14.173c-.145.29-.258.5-.419.694-.29.371-.597.629-.823.984-.177.29-.274.565-.306.871-.032.274-.032.5.016.71.081.436.339 1 .677 1.339a3.34 3.34 0 0 1 .388-1.629c.113-.21.194-.387.274-.581.339-.79.242-1.548.194-2.387zM.644 17.335a3.895 3.895 0 0 1-.161.839c-.161.468-.371.823-.484 1.242a2.02 2.02 0 0 0 .016.984c.065.29.161.516.274.726.242.419.726.936 1.194 1.194a6.153 6.153 0 0 1-.21-.758 3.062 3.062 0 0 1 0-1.016c.032-.242.065-.452.065-.661.065-.952-.323-1.71-.694-2.549z"/>
      <path fill="#fff" style="fill:var(--color1, #fff)" d="M1.499 22.319c-.677-.371-1.484-1.468-1.71-1.984-.161-.355-.419-.694-.677-1.016-.468-.581-1.048-1.177-1.565-1.548.016.419.048.839.129 1.355.242 1.097.758 1.936 1.936 2.452.468.194 1.387.694 1.887.742zM1.918 20.481c.097.371.145.645.161.936.016.548-.081.984-.016 1.468.048.387.194.726.403 1.032.194.29.371.5.581.694.436.371 1.161.79 1.758.919a4.428 4.428 0 0 1-.516-.742 3.833 3.833 0 0 1-.403-1.081 15.16 15.16 0 0 0-.194-.726c-.339-1.016-1.048-1.71-1.774-2.5z"/>
      <path fill="#fff" style="fill:var(--color1, #fff)" d="M4.821 25.545c-.871-.194-2.161-1.129-2.613-1.597-.323-.339-.71-.613-1.129-.887-.726-.484-1.597-.952-2.29-1.194.194.452.387.887.677 1.403.694 1.097 1.581 1.839 3.049 2.048.565.065 1.758.323 2.307.226zM4.564 23.432c.274.339.436.597.565.887.242.548.355 1 .629 1.468.226.371.532.661.887.919.323.226.613.387.919.516.613.242 1.565.436 2.242.387-.355-.21-.629-.387-.871-.597a4.21 4.21 0 0 1-.903-.968 12.117 12.117 0 0 0-.532-.677c-.774-.887-1.823-1.371-2.936-1.936z"/>
      <path fill="#fff" style="fill:var(--color1, #fff)" d="M9.837 27.61c-1 .065-2.774-.468-3.452-.806-.484-.242-1.016-.403-1.581-.549-.984-.258-2.097-.468-2.936-.5.403.387.79.774 1.323 1.194 1.21.887 2.468 1.355 4.113 1.113.629-.081 1.984-.178 2.532-.452zM23.454 4.98c-1.371-.871-2.807-2.21-5.226-3.113 1.774.016 4.581 1.129 5.226 3.113zM21.872 5.254c.29.129.5.21.742.274.452.113.823.145 1.21.274.306.097.565.258.774.436.194.161.339.323.452.484.226.323.419.839.419 1.226a3.725 3.725 0 0 0-1.339-.904 4.62 4.62 0 0 1-.565-.258c-.742-.387-1.177-.936-1.694-1.532z"/>
      <path fill="#fff" style="fill:var(--color1, #fff)" d="M25.485 7.964c0-.565-.516-1.516-.823-1.887a4.12 4.12 0 0 1-.516-.855c-.258-.532-.484-1.145-.548-1.613.323.194.661.403 1.016.677.774.629 1.21 1.306 1.097 2.226-.032.371-.032 1.145-.226 1.452zM24.116 8.06c.258.177.452.29.661.387.419.177.774.274 1.113.468.274.145.484.339.661.565.161.194.258.371.339.548.145.355.226.903.129 1.274a3.51 3.51 0 0 0-.403-.532 2.98 2.98 0 0 0-.694-.581 13.545 13.545 0 0 1-.5-.339c-.629-.5-.936-1.129-1.306-1.79z"/>
      <path fill="#fff" style="fill:var(--color1, #fff)" d="M27.036 11.319c.129-.548-.161-1.581-.387-1.984a3.612 3.612 0 0 1-.306-.919c-.129-.565-.21-1.194-.177-1.661.274.258.548.5.855.839.613.742.887 1.484.581 2.371-.113.339-.306 1.081-.565 1.355zM25.453 10.867c.21.258.371.435.565.597.371.306.726.5 1.016.79.242.242.387.5.5.774.097.258.145.468.161.677a2.72 2.72 0 0 1-.323 1.403 5.528 5.528 0 0 0-.226-.677 3.468 3.468 0 0 0-.532-.806c-.145-.177-.29-.339-.403-.5-.516-.71-.613-1.452-.758-2.258z"/>
      <path fill="#fff" style="fill:var(--color1, #fff)" d="M27.372 15.126c.339-.548.403-1.726.323-2.21a4.74 4.74 0 0 1 0-1.065c.065-.645.226-1.339.435-1.823.194.339.403.677.597 1.113.387.968.403 1.823-.258 2.678-.258.339-.726 1.081-1.097 1.307zM26.083 14.173c.145.29.258.5.419.694.29.371.597.629.823.984.177.29.274.565.306.871.032.274.032.5-.016.71-.081.436-.339 1-.678 1.339a3.34 3.34 0 0 0-.387-1.629 5.972 5.972 0 0 1-.274-.581c-.339-.79-.242-1.548-.194-2.387z"/>
      <path fill="#fff" style="fill:var(--color1, #fff)" d="M26.938 18.787c.484-.484.839-1.645.871-2.161.032-.355.145-.71.274-1.065.226-.629.549-1.29.887-1.742.113.387.242.758.323 1.226.145 1.032-.049 1.887-.936 2.629-.339.306-1 .952-1.419 1.113zM26.021 17.335c.032.339.081.581.161.839.161.468.371.823.484 1.242.081.339.064.661-.016.984-.065.29-.161.516-.274.726-.242.419-.726.936-1.194 1.194.097-.29.161-.516.21-.758a3.062 3.062 0 0 0 0-1.016c-.032-.242-.064-.452-.064-.661-.065-.952.323-1.71.694-2.549z"/>
      <path fill="#fff" style="fill:var(--color1, #fff)" d="M25.166 22.319c.677-.371 1.484-1.468 1.71-1.984.161-.355.419-.694.677-1.016.468-.581 1.049-1.177 1.565-1.548a11.1 11.1 0 0 1-.129 1.355c-.242 1.097-.758 1.936-1.935 2.452-.468.194-1.387.694-1.887.742zM24.745 20.481a4.526 4.526 0 0 0-.161.936c-.016.548.081.984.016 1.468a2.314 2.314 0 0 1-.403 1.032 3.7 3.7 0 0 1-.581.694c-.436.371-1.161.79-1.758.919.226-.274.387-.5.516-.742.21-.371.323-.726.403-1.081.065-.274.129-.5.194-.726.339-1.016 1.048-1.71 1.774-2.5z"/>
      <path fill="#fff" style="fill:var(--color1, #fff)" d="M21.841 25.545c.871-.194 2.161-1.129 2.613-1.597.323-.339.71-.613 1.129-.887.726-.484 1.597-.952 2.29-1.194-.194.452-.387.887-.677 1.403-.694 1.097-1.581 1.839-3.049 2.048-.565.065-1.758.323-2.307.226zM22.101 23.432a3.832 3.832 0 0 0-.565.887c-.242.548-.355 1-.629 1.468-.226.371-.532.661-.887.919a4.86 4.86 0 0 1-.919.516c-.613.242-1.565.436-2.242.387.355-.21.629-.387.871-.597a4.21 4.21 0 0 0 .903-.968c.177-.242.355-.468.532-.677.774-.887 1.823-1.371 2.936-1.936z"/>
      <path fill="#fff" style="fill:var(--color1, #fff)" d="M16.825 27.61c1 .065 2.774-.468 3.452-.806.484-.242 1.016-.403 1.581-.549.984-.258 2.097-.468 2.936-.5-.403.387-.79.774-1.323 1.194-1.21.887-2.468 1.355-4.113 1.113-.629-.081-1.984-.178-2.532-.452zM15.638 13.189a3.143 3.143 0 0 0-2.191-.84c-1.49 0-2.756.986-3.207 2.313a3.295 3.295 0 0 0 0 2.144h.002c.453 1.325 1.717 2.311 3.207 2.311.769 0 1.43-.193 1.942-.534v-.001a2.59 2.59 0 0 0 1.142-1.702h-3.086v-2.156h5.389c.067.374.099.757.099 1.138 0 1.703-.621 3.143-1.701 4.118l.001.001c-.947.856-2.246 1.352-3.787 1.352-2.16 0-4.135-1.193-5.105-3.084a5.508 5.508 0 0 1 0-5.029c.97-1.893 2.945-3.086 5.105-3.086a5.554 5.554 0 0 1 3.823 1.457L15.64 13.19z"/>
    </symbol>
    <symbol id="icon-Icon-label-1" viewBox="0 0 32 32">
      <path fill="#fff" style="fill:var(--color1, #fff)" d="M11.524 27.529s6.549.032 8.71 1.839l-1.129.403s-3.065-2.178-8.404-1.774c.274-.242.823-.468.823-.468z"/>
      <path fill="#fff" style="fill:var(--color1, #fff)" d="M20.735 27.529s-6.549.032-8.71 1.839l1.129.403s3.065-2.178 8.404-1.774c-.274-.242-.823-.468-.823-.468zM6.008 4.98c1.371-.887 2.79-2.21 5.226-3.113-1.774.016-4.581 1.129-5.226 3.113zM7.589 5.254c-.29.129-.5.21-.742.274-.452.113-.823.145-1.21.274a2.245 2.245 0 0 0-.774.436 2.47 2.47 0 0 0-.452.484c-.226.323-.419.839-.419 1.226.177-.177.339-.323.516-.452.274-.194.532-.339.806-.452a4.62 4.62 0 0 0 .565-.258c.758-.387 1.194-.936 1.71-1.532z"/>
      <path fill="#fff" style="fill:var(--color1, #fff)" d="M3.976 7.964c0-.565.516-1.516.823-1.887a4.12 4.12 0 0 0 .516-.855c.258-.532.484-1.145.548-1.613-.323.194-.661.403-1.016.677-.774.629-1.21 1.306-1.097 2.226.032.371.032 1.145.226 1.452zM5.347 8.06c-.258.177-.452.29-.661.387-.419.177-.774.274-1.113.468a2.046 2.046 0 0 0-.661.565 2.343 2.343 0 0 0-.339.548c-.145.355-.226.903-.129 1.274a3.51 3.51 0 0 1 .403-.532 2.98 2.98 0 0 1 .694-.581c.177-.113.339-.226.5-.339.629-.5.936-1.129 1.306-1.79z"/>
      <path fill="#fff" style="fill:var(--color1, #fff)" d="M2.428 11.319c-.129-.548.161-1.581.387-1.984.145-.29.242-.597.306-.919.129-.565.21-1.194.177-1.661-.274.258-.548.5-.855.839-.613.742-.887 1.484-.581 2.371.113.339.306 1.081.565 1.355zM4.008 10.867a4.13 4.13 0 0 1-.565.597c-.371.306-.726.5-1.016.79-.242.242-.387.5-.5.774a2.393 2.393 0 0 0-.161.677 2.72 2.72 0 0 0 .323 1.403c.065-.258.145-.468.226-.677a3.5 3.5 0 0 1 .532-.806c.145-.177.29-.339.403-.5.516-.71.613-1.452.758-2.258z"/>
      <path fill="#fff" style="fill:var(--color1, #fff)" d="M2.088 15.126c-.339-.548-.403-1.726-.323-2.21a4.74 4.74 0 0 0 0-1.065c-.065-.645-.226-1.339-.435-1.823-.194.339-.403.677-.597 1.113-.387.968-.403 1.823.258 2.678.258.339.726 1.081 1.097 1.307zM3.379 14.173c-.145.29-.258.5-.419.694-.29.371-.597.629-.823.984-.177.29-.274.565-.306.871-.032.274-.032.5.016.71.081.436.339 1 .677 1.339a3.34 3.34 0 0 1 .388-1.629c.113-.21.194-.387.274-.581.339-.79.242-1.548.194-2.387z"/>
      <path fill="#fff" style="fill:var(--color1, #fff)" d="M2.525 18.787c-.484-.484-.839-1.645-.871-2.161-.032-.355-.145-.71-.274-1.065-.226-.629-.548-1.29-.887-1.742-.113.387-.242.758-.323 1.226-.129 1.048.065 1.903.936 2.645.339.29 1 .936 1.419 1.097zM3.445 17.335a3.895 3.895 0 0 1-.161.839c-.161.468-.371.823-.484 1.242-.081.339-.064.661.016.984.065.29.161.516.274.726.242.419.726.936 1.194 1.194a6.153 6.153 0 0 1-.21-.758 3.062 3.062 0 0 1 0-1.016c.032-.242.064-.452.064-.661.064-.952-.323-1.71-.694-2.549z"/>
      <path fill="#fff" style="fill:var(--color1, #fff)" d="M4.299 22.319c-.677-.371-1.484-1.468-1.71-1.984-.161-.355-.419-.694-.677-1.016-.468-.581-1.048-1.177-1.565-1.548.016.419.048.839.129 1.355.242 1.097.758 1.936 1.936 2.452.468.194 1.387.694 1.887.742zM4.718 20.481c.097.371.145.645.161.936.016.548-.081.984-.016 1.468.048.387.194.726.403 1.032.194.29.371.5.581.694.436.371 1.161.79 1.758.919a4.428 4.428 0 0 1-.516-.742 3.833 3.833 0 0 1-.403-1.081 15.16 15.16 0 0 0-.194-.726c-.339-1.016-1.048-1.71-1.774-2.5z"/>
      <path fill="#fff" style="fill:var(--color1, #fff)" d="M7.621 25.545c-.871-.194-2.161-1.129-2.613-1.597-.323-.339-.71-.613-1.129-.887-.726-.484-1.597-.952-2.29-1.194.194.452.387.887.677 1.403.694 1.097 1.581 1.839 3.049 2.048.565.065 1.758.323 2.307.226zM7.364 23.432c.274.339.436.597.565.887.242.548.355 1 .629 1.468.226.371.532.661.887.919.323.226.613.387.919.516.613.242 1.565.436 2.242.387-.355-.21-.629-.387-.871-.597a4.21 4.21 0 0 1-.903-.968 12.117 12.117 0 0 0-.532-.677c-.774-.887-1.823-1.371-2.936-1.936z"/>
      <path fill="#fff" style="fill:var(--color1, #fff)" d="M12.637 27.61c-1 .065-2.774-.468-3.452-.806-.484-.242-1.016-.403-1.581-.549-.984-.258-2.097-.468-2.936-.5.403.387.79.774 1.323 1.194 1.21.887 2.468 1.355 4.113 1.113.629-.081 1.984-.178 2.532-.452zM26.254 4.98c-1.371-.871-2.807-2.21-5.226-3.113 1.774.016 4.581 1.129 5.226 3.113zM24.672 5.254c.29.129.5.21.742.274.452.113.823.145 1.21.274.306.097.564.258.774.436.193.161.339.323.451.484.226.323.419.839.419 1.226a3.725 3.725 0 0 0-1.339-.904 4.536 4.536 0 0 1-.564-.258c-.742-.387-1.177-.936-1.694-1.532z"/>
      <path fill="#fff" style="fill:var(--color1, #fff)" d="M28.285 7.964c0-.565-.516-1.516-.823-1.887a4.12 4.12 0 0 1-.516-.855c-.258-.532-.484-1.145-.548-1.613.323.194.661.403 1.016.677.774.629 1.21 1.306 1.097 2.226-.032.371-.032 1.145-.226 1.452zM26.917 8.06c.258.177.451.29.661.387.419.177.774.274 1.113.468.274.145.484.339.661.565.161.194.258.371.339.548.145.355.226.903.129 1.274a3.51 3.51 0 0 0-.403-.532 2.96 2.96 0 0 0-.694-.581 13.545 13.545 0 0 1-.5-.339c-.629-.5-.935-1.129-1.306-1.79z"/>
      <path fill="#fff" style="fill:var(--color1, #fff)" d="M29.836 11.319c.129-.548-.161-1.581-.387-1.984a3.612 3.612 0 0 1-.306-.919c-.129-.565-.21-1.194-.177-1.661.274.258.548.5.855.839.613.742.887 1.484.581 2.371-.113.339-.306 1.081-.565 1.355zM28.253 10.867c.21.258.371.435.565.597.371.306.726.5 1.016.79.242.242.387.5.5.774.097.258.145.468.161.677a2.72 2.72 0 0 1-.323 1.403 5.528 5.528 0 0 0-.226-.677 3.468 3.468 0 0 0-.532-.806c-.145-.177-.29-.339-.403-.5-.516-.71-.613-1.452-.758-2.258z"/>
      <path fill="#fff" style="fill:var(--color1, #fff)" d="M30.172 15.126c.339-.548.403-1.726.323-2.21a4.74 4.74 0 0 1 0-1.065c.065-.645.226-1.339.435-1.823.194.339.403.677.597 1.113.387.968.403 1.823-.258 2.678-.258.339-.726 1.081-1.097 1.307zM28.883 14.173c.145.29.258.5.419.694.29.371.597.629.823.984.177.29.274.565.306.871.032.274.032.5-.016.71-.081.436-.339 1-.678 1.339a3.34 3.34 0 0 0-.387-1.629 5.972 5.972 0 0 1-.274-.581c-.339-.79-.242-1.548-.193-2.387z"/>
      <path fill="#fff" style="fill:var(--color1, #fff)" d="M29.738 18.787c.484-.484.839-1.645.871-2.161.032-.355.145-.71.274-1.065.226-.629.549-1.29.887-1.742.113.387.242.758.323 1.226.145 1.032-.049 1.887-.936 2.629-.339.306-1 .952-1.419 1.113zM28.821 17.335c.032.339.081.581.161.839.161.468.371.823.484 1.242a2.02 2.02 0 0 1-.016.984c-.065.29-.161.516-.274.726-.242.419-.726.936-1.194 1.194.097-.29.161-.516.21-.758a3.062 3.062 0 0 0 0-1.016c-.032-.242-.065-.452-.065-.661-.065-.952.323-1.71.694-2.549z"/>
      <path fill="#fff" style="fill:var(--color1, #fff)" d="M27.966 22.319c.678-.371 1.484-1.468 1.71-1.984.161-.355.419-.694.677-1.016.468-.581 1.049-1.177 1.565-1.548a11.1 11.1 0 0 1-.129 1.355c-.242 1.097-.758 1.936-1.935 2.452-.468.194-1.387.694-1.887.742zM27.545 20.481a4.526 4.526 0 0 0-.161.936c-.016.548.081.984.016 1.468a2.325 2.325 0 0 1-.403 1.032c-.193.29-.371.5-.581.694-.436.371-1.161.79-1.758.919.226-.274.387-.5.516-.742.21-.371.323-.726.403-1.081.065-.274.129-.5.194-.726.339-1.016 1.048-1.71 1.774-2.5z"/>
      <path fill="#fff" style="fill:var(--color1, #fff)" d="M24.641 25.545c.871-.194 2.161-1.129 2.613-1.597.323-.339.71-.613 1.129-.887.726-.484 1.597-.952 2.29-1.194-.194.452-.387.887-.677 1.403-.694 1.097-1.581 1.839-3.049 2.048-.565.065-1.758.323-2.307.226zM24.901 23.432a3.832 3.832 0 0 0-.565.887c-.242.548-.355 1-.629 1.468-.226.371-.532.661-.887.919a4.86 4.86 0 0 1-.919.516c-.613.242-1.565.436-2.242.387.355-.21.629-.387.871-.597a4.21 4.21 0 0 0 .903-.968c.177-.242.355-.468.532-.677.774-.887 1.823-1.371 2.936-1.936z"/>
      <path fill="#fff" style="fill:var(--color1, #fff)" d="M19.625 27.61c1 .065 2.774-.468 3.452-.806.484-.242 1.016-.403 1.581-.549.984-.258 2.097-.468 2.936-.5-.403.387-.79.774-1.323 1.194-1.21.887-2.468 1.355-4.113 1.113-.629-.081-1.984-.178-2.532-.452zM10.858 21.6a.766.766 0 0 1-.551-.227l-.08-.08a.778.778 0 0 1-.22-.666c.033-.264.176-.535.403-.761l2.624-2.624a.417.417 0 0 0 .061-.507 4.9 4.9 0 0 1-.668-3.078 4.85 4.85 0 0 1 1.411-2.88c.931-.931 2.172-1.444 3.492-1.444s2.561.513 3.492 1.444a4.944 4.944 0 0 1 0 6.985 4.848 4.848 0 0 1-3.444 1.444c-.88 0-1.749-.242-2.514-.701a.444.444 0 0 0-.219-.058.411.411 0 0 0-.294.124l-2.619 2.619c-.261.261-.58.41-.876.41zm6.472-11.333c-1.071 0-2.076.416-2.832 1.171s-1.171 1.761-1.171 2.832.416 2.076 1.171 2.831 1.761 1.171 2.832 1.171 2.076-.416 2.831-1.171 1.171-1.761 1.171-2.831c0-1.071-.416-2.076-1.171-2.832s-1.761-1.171-2.831-1.171z"/>
      <path fill="#fff" style="fill:var(--color1, #fff)" d="M18.566 12.926c-.102.1-.263.099-.383.022a1.478 1.478 0 0 0-.828-.237c-.7 0-1.294.463-1.506 1.086-.112.326-.112.68 0 1.006h.001a1.603 1.603 0 0 0 1.506 1.085c.361 0 .671-.091.911-.25v-.001c.283-.184.476-.472.536-.799h-1.182a.267.267 0 0 1-.267-.267v-.479c0-.147.119-.267.267-.267h2.04a.25.25 0 0 1 .254.221c.01.104.016.209.016.313 0 .799-.291 1.475-.799 1.933-.444.402-1.054.635-1.777.635a2.687 2.687 0 0 1-2.396-1.448 2.585 2.585 0 0 1 0-2.36 2.686 2.686 0 0 1 2.396-1.449 2.615 2.615 0 0 1 1.578.505c.123.09.125.268.016.375l-.383.375z"/>
    </symbol>
    <symbol id="icon-Icon-label-2" viewBox="0 0 32 32">
      <path fill="#fff" style="fill:var(--color1, #fff)" d="M11.524 27.529s6.549.032 8.71 1.839l-1.129.403s-3.065-2.178-8.404-1.774c.274-.242.823-.468.823-.468z"/>
      <path fill="#fff" style="fill:var(--color1, #fff)" d="M20.735 27.529s-6.549.032-8.71 1.839l1.129.403s3.065-2.178 8.404-1.774c-.274-.242-.823-.468-.823-.468zM6.008 4.98c1.371-.887 2.79-2.21 5.226-3.113-1.774.016-4.581 1.129-5.226 3.113zM7.589 5.254c-.29.129-.5.21-.742.274-.452.113-.823.145-1.21.274a2.245 2.245 0 0 0-.774.436 2.47 2.47 0 0 0-.452.484c-.226.323-.419.839-.419 1.226.177-.177.339-.323.516-.452.274-.194.532-.339.806-.452a4.62 4.62 0 0 0 .565-.258c.758-.387 1.194-.936 1.71-1.532z"/>
      <path fill="#fff" style="fill:var(--color1, #fff)" d="M3.976 7.964c0-.565.516-1.516.823-1.887a4.12 4.12 0 0 0 .516-.855c.258-.532.484-1.145.548-1.613-.323.194-.661.403-1.016.677-.774.629-1.21 1.306-1.097 2.226.032.371.032 1.145.226 1.452zM5.347 8.06c-.258.177-.452.29-.661.387-.419.177-.774.274-1.113.468a2.046 2.046 0 0 0-.661.565 2.343 2.343 0 0 0-.339.548c-.145.355-.226.903-.129 1.274a3.51 3.51 0 0 1 .403-.532 2.98 2.98 0 0 1 .694-.581c.177-.113.339-.226.5-.339.629-.5.936-1.129 1.306-1.79z"/>
      <path fill="#fff" style="fill:var(--color1, #fff)" d="M2.428 11.319c-.129-.548.161-1.581.387-1.984.145-.29.242-.597.306-.919.129-.565.21-1.194.177-1.661-.274.258-.548.5-.855.839-.613.742-.887 1.484-.581 2.371.113.339.306 1.081.565 1.355zM4.008 10.867a4.13 4.13 0 0 1-.565.597c-.371.306-.726.5-1.016.79-.242.242-.387.5-.5.774a2.393 2.393 0 0 0-.161.677 2.72 2.72 0 0 0 .323 1.403c.065-.258.145-.468.226-.677a3.5 3.5 0 0 1 .532-.806c.145-.177.29-.339.403-.5.516-.71.613-1.452.758-2.258z"/>
      <path fill="#fff" style="fill:var(--color1, #fff)" d="M2.088 15.126c-.339-.548-.403-1.726-.323-2.21a4.74 4.74 0 0 0 0-1.065c-.065-.645-.226-1.339-.435-1.823-.194.339-.403.677-.597 1.113-.387.968-.403 1.823.258 2.678.258.339.726 1.081 1.097 1.307zM3.379 14.173c-.145.29-.258.5-.419.694-.29.371-.597.629-.823.984-.177.29-.274.565-.306.871-.032.274-.032.5.016.71.081.436.339 1 .677 1.339a3.34 3.34 0 0 1 .388-1.629c.113-.21.194-.387.274-.581.339-.79.242-1.548.194-2.387z"/>
      <path fill="#fff" style="fill:var(--color1, #fff)" d="M2.525 18.787c-.484-.484-.839-1.645-.871-2.161-.032-.355-.145-.71-.274-1.065-.226-.629-.548-1.29-.887-1.742-.113.387-.242.758-.323 1.226-.129 1.048.065 1.903.936 2.645.339.29 1 .936 1.419 1.097zM3.445 17.335a3.895 3.895 0 0 1-.161.839c-.161.468-.371.823-.484 1.242a2.02 2.02 0 0 0 .016.984c.065.29.161.516.274.726.242.419.726.936 1.194 1.194a6.153 6.153 0 0 1-.21-.758 3.062 3.062 0 0 1 0-1.016c.032-.242.064-.452.064-.661.065-.952-.323-1.71-.694-2.549z"/>
      <path fill="#fff" style="fill:var(--color1, #fff)" d="M4.299 22.319c-.677-.371-1.484-1.468-1.71-1.984-.161-.355-.419-.694-.677-1.016-.468-.581-1.048-1.177-1.565-1.548.016.419.048.839.129 1.355.242 1.097.758 1.936 1.936 2.452.468.194 1.387.694 1.887.742zM4.718 20.481c.097.371.145.645.161.936.016.548-.081.984-.016 1.468.048.387.194.726.403 1.032.194.29.371.5.581.694.436.371 1.161.79 1.758.919a4.428 4.428 0 0 1-.516-.742 3.833 3.833 0 0 1-.403-1.081 15.16 15.16 0 0 0-.194-.726c-.339-1.016-1.048-1.71-1.774-2.5z"/>
      <path fill="#fff" style="fill:var(--color1, #fff)" d="M7.621 25.545c-.871-.194-2.161-1.129-2.613-1.597-.323-.339-.71-.613-1.129-.887-.726-.484-1.597-.952-2.29-1.194.194.452.387.887.677 1.403.694 1.097 1.581 1.839 3.049 2.048.565.065 1.758.323 2.307.226zM7.364 23.432c.274.339.436.597.565.887.242.548.355 1 .629 1.468.226.371.532.661.887.919.323.226.613.387.919.516.613.242 1.565.436 2.242.387-.355-.21-.629-.387-.871-.597a4.21 4.21 0 0 1-.903-.968 12.117 12.117 0 0 0-.532-.677c-.774-.887-1.823-1.371-2.936-1.936z"/>
      <path fill="#fff" style="fill:var(--color1, #fff)" d="M12.637 27.61c-1 .065-2.774-.468-3.452-.806-.484-.242-1.016-.403-1.581-.549-.984-.258-2.097-.468-2.936-.5.403.387.79.774 1.323 1.194 1.21.887 2.468 1.355 4.113 1.113.629-.081 1.984-.178 2.532-.452zM26.254 4.98c-1.371-.871-2.807-2.21-5.226-3.113 1.774.016 4.581 1.129 5.226 3.113zM24.672 5.254c.29.129.5.21.742.274.452.113.823.145 1.21.274.307.097.564.258.774.436.193.161.339.323.451.484.226.323.419.839.419 1.226a3.741 3.741 0 0 0-1.338-.904 4.62 4.62 0 0 1-.565-.258c-.742-.387-1.177-.936-1.694-1.532z"/>
      <path fill="#fff" style="fill:var(--color1, #fff)" d="M28.285 7.964c0-.565-.516-1.516-.823-1.887a4.12 4.12 0 0 1-.516-.855c-.258-.532-.484-1.145-.549-1.613.323.194.661.403 1.016.677.774.629 1.21 1.306 1.097 2.226-.032.371-.032 1.145-.226 1.452zM26.917 8.06c.258.177.451.29.661.387.419.177.774.274 1.113.468.274.145.484.339.661.565.161.194.258.371.339.548.145.355.226.903.129 1.274a3.51 3.51 0 0 0-.403-.532 2.96 2.96 0 0 0-.694-.581 13.545 13.545 0 0 1-.5-.339c-.629-.5-.935-1.129-1.306-1.79z"/>
      <path fill="#fff" style="fill:var(--color1, #fff)" d="M29.836 11.319c.129-.548-.161-1.581-.387-1.984a3.612 3.612 0 0 1-.306-.919c-.129-.565-.21-1.194-.177-1.661.274.258.548.5.855.839.613.742.887 1.484.581 2.371-.113.339-.306 1.081-.565 1.355zM28.253 10.867c.21.258.371.435.565.597.371.306.726.5 1.016.79.242.242.387.5.5.774.097.258.145.468.161.677a2.72 2.72 0 0 1-.323 1.403 5.528 5.528 0 0 0-.226-.677 3.468 3.468 0 0 0-.532-.806c-.145-.177-.29-.339-.403-.5-.516-.71-.613-1.452-.758-2.258z"/>
      <path fill="#fff" style="fill:var(--color1, #fff)" d="M30.172 15.126c.339-.548.403-1.726.323-2.21a4.74 4.74 0 0 1 0-1.065c.065-.645.226-1.339.435-1.823.194.339.403.677.597 1.113.387.968.403 1.823-.258 2.678-.258.339-.726 1.081-1.097 1.307zM28.883 14.173c.145.29.258.5.419.694.29.371.597.629.823.984.177.29.274.565.306.871.032.274.032.5-.016.71-.081.436-.339 1-.678 1.339a3.34 3.34 0 0 0-.387-1.629 5.972 5.972 0 0 1-.274-.581c-.339-.79-.242-1.548-.193-2.387z"/>
      <path fill="#fff" style="fill:var(--color1, #fff)" d="M29.738 18.787c.484-.484.839-1.645.871-2.161.032-.355.145-.71.274-1.065.226-.629.549-1.29.887-1.742.113.387.242.758.323 1.226.145 1.032-.049 1.887-.936 2.629-.339.306-1 .952-1.419 1.113zM28.821 17.335c.032.339.081.581.161.839.161.468.371.823.484 1.242a2.02 2.02 0 0 1-.016.984c-.065.29-.161.516-.274.726-.242.419-.726.936-1.194 1.194.097-.29.161-.516.21-.758a3.062 3.062 0 0 0 0-1.016c-.032-.242-.065-.452-.065-.661-.065-.952.323-1.71.694-2.549z"/>
      <path fill="#fff" style="fill:var(--color1, #fff)" d="M27.966 22.319c.678-.371 1.484-1.468 1.71-1.984.161-.355.419-.694.677-1.016.468-.581 1.049-1.177 1.565-1.548a11.1 11.1 0 0 1-.129 1.355c-.242 1.097-.758 1.936-1.935 2.452-.468.194-1.387.694-1.887.742zM27.545 20.481a4.526 4.526 0 0 0-.161.936c-.016.548.081.984.016 1.468a2.325 2.325 0 0 1-.403 1.032c-.193.29-.371.5-.581.694-.436.371-1.161.79-1.758.919.226-.274.387-.5.516-.742.21-.371.323-.726.403-1.081.065-.274.129-.5.194-.726.339-1.016 1.048-1.71 1.774-2.5z"/>
      <path fill="#fff" style="fill:var(--color1, #fff)" d="M24.641 25.545c.871-.194 2.161-1.129 2.613-1.597.323-.339.71-.613 1.129-.887.726-.484 1.597-.952 2.29-1.194-.194.452-.387.887-.677 1.403-.694 1.097-1.581 1.839-3.049 2.048-.565.065-1.758.323-2.307.226zM24.901 23.432a3.832 3.832 0 0 0-.565.887c-.242.548-.355 1-.629 1.468-.226.371-.532.661-.887.919a4.86 4.86 0 0 1-.919.516c-.613.242-1.565.436-2.242.387.355-.21.629-.387.871-.597a4.21 4.21 0 0 0 .903-.968c.177-.242.355-.468.532-.677.774-.887 1.823-1.371 2.936-1.936z"/>
      <path fill="#fff" style="fill:var(--color1, #fff)" d="M19.625 27.61c1 .065 2.774-.468 3.452-.806.484-.242 1.016-.403 1.581-.549.984-.258 2.097-.468 2.936-.5-.403.387-.79.774-1.323 1.194-1.21.887-2.468 1.355-4.113 1.113-.629-.081-1.984-.178-2.532-.452zM20.353 9.956h-8.4a1.405 1.405 0 0 0-1.4 1.407v.578c0 .147.119.267.267.267h10.667a.267.267 0 0 0 .267-.267v-.578a1.404 1.404 0 0 0-1.4-1.407zm-7.84 1.408h-.56a.28.28 0 0 1 0-.562h.56a.28.28 0 0 1 0 .562zm1.68 0h-.56a.28.28 0 0 1 0-.562h.56a.28.28 0 0 1 0 .562zM13.914 15.586c0-.311-.251-.563-.56-.563s-.56.252-.56.563v.563h1.12v-.563zM16.714 16.993v-1.126a.842.842 0 0 0-.84-.844h-.28v2.815h.28c.464 0 .84-.378.84-.844z"/>
      <path fill="#fff" style="fill:var(--color1, #fff)" d="M10.553 18.682a1.404 1.404 0 0 0 1.4 1.407h8.4a1.405 1.405 0 0 0 1.4-1.407v-5.749h-11.2v5.749zm8.275-2c-.443-.223-.995-.5-.995-1.096 0-.622.501-1.126 1.12-1.126s1.12.504 1.12 1.126a.28.28 0 1 1-.56 0c0-.311-.251-.563-.56-.563s-.56.252-.56.563c0 .232.259.378.685.593.443.223.995.5.995 1.096 0 .622-.501 1.126-1.12 1.126s-1.12-.504-1.12-1.126c0-.155.125-.282.28-.282s.28.126.28.282c0 .311.251.563.56.563s.56-.252.56-.563c0-.232-.259-.378-.685-.593zm-3.795-1.94a.28.28 0 0 1 .28-.281h.56c.773.001 1.399.63 1.4 1.407v1.126a1.404 1.404 0 0 1-1.4 1.407h-.56a.28.28 0 0 1-.28-.282v-3.378zm-2.8.844c0-.622.501-1.126 1.12-1.126s1.12.504 1.12 1.126v2.533c0 .155-.125.282-.28.282s-.28-.126-.28-.282v-1.407h-1.12v1.407c0 .155-.125.282-.28.282s-.28-.126-.28-.282v-2.533z"/>
    </symbol>
    <symbol id="icon-Icon-label-3" viewBox="0 0 32 32">
      <path fill="#fff" style="fill:var(--color1, #fff)" d="M11.524 27.529s6.549.032 8.71 1.839l-1.129.403s-3.065-2.178-8.404-1.774c.274-.242.823-.468.823-.468z"/>
      <path fill="#fff" style="fill:var(--color1, #fff)" d="M20.735 27.529s-6.549.032-8.71 1.839l1.129.403s3.065-2.178 8.404-1.774c-.274-.242-.823-.468-.823-.468zM6.008 4.98c1.371-.887 2.79-2.21 5.226-3.113-1.774.016-4.581 1.129-5.226 3.113zM7.589 5.254c-.29.129-.5.21-.742.274-.452.113-.823.145-1.21.274a2.245 2.245 0 0 0-.774.436 2.47 2.47 0 0 0-.452.484c-.226.323-.419.839-.419 1.226.177-.177.339-.323.516-.452.274-.194.532-.339.806-.452a4.62 4.62 0 0 0 .565-.258c.758-.387 1.194-.936 1.71-1.532z"/>
      <path fill="#fff" style="fill:var(--color1, #fff)" d="M3.976 7.964c0-.565.516-1.516.823-1.887a4.12 4.12 0 0 0 .516-.855c.258-.532.484-1.145.548-1.613-.323.194-.661.403-1.016.677-.774.629-1.21 1.306-1.097 2.226.032.371.032 1.145.226 1.452zM5.347 8.06c-.258.177-.452.29-.661.387-.419.177-.774.274-1.113.468a2.046 2.046 0 0 0-.661.565 2.343 2.343 0 0 0-.339.548c-.145.355-.226.903-.129 1.274a3.51 3.51 0 0 1 .403-.532 2.98 2.98 0 0 1 .694-.581c.177-.113.339-.226.5-.339.629-.5.936-1.129 1.306-1.79z"/>
      <path fill="#fff" style="fill:var(--color1, #fff)" d="M2.428 11.319c-.129-.548.161-1.581.387-1.984.145-.29.242-.597.306-.919.129-.565.21-1.194.177-1.661-.274.258-.548.5-.855.839-.613.742-.887 1.484-.581 2.371.113.339.306 1.081.565 1.355zM4.008 10.867a4.13 4.13 0 0 1-.565.597c-.371.306-.726.5-1.016.79-.242.242-.387.5-.5.774a2.393 2.393 0 0 0-.161.677 2.72 2.72 0 0 0 .323 1.403c.065-.258.145-.468.226-.677a3.5 3.5 0 0 1 .532-.806c.145-.177.29-.339.403-.5.516-.71.613-1.452.758-2.258z"/>
      <path fill="#fff" style="fill:var(--color1, #fff)" d="M2.088 15.126c-.339-.548-.403-1.726-.323-2.21a4.74 4.74 0 0 0 0-1.065c-.065-.645-.226-1.339-.435-1.823-.194.339-.403.677-.597 1.113-.387.968-.403 1.823.258 2.678.258.339.726 1.081 1.097 1.307zM3.379 14.173c-.145.29-.258.5-.419.694-.29.371-.597.629-.823.984-.177.29-.274.565-.306.871-.032.274-.032.5.016.71.081.436.339 1 .677 1.339a3.34 3.34 0 0 1 .388-1.629c.113-.21.194-.387.274-.581.339-.79.242-1.548.194-2.387z"/>
      <path fill="#fff" style="fill:var(--color1, #fff)" d="M2.525 18.787c-.484-.484-.839-1.645-.871-2.161-.032-.355-.145-.71-.274-1.065-.226-.629-.548-1.29-.887-1.742-.113.387-.242.758-.323 1.226-.129 1.048.065 1.903.936 2.645.339.29 1 .936 1.419 1.097zM3.445 17.335a3.895 3.895 0 0 1-.161.839c-.161.468-.371.823-.484 1.242a2.02 2.02 0 0 0 .016.984c.065.29.161.516.274.726.242.419.726.936 1.194 1.194a6.153 6.153 0 0 1-.21-.758 3.062 3.062 0 0 1 0-1.016c.032-.242.064-.452.064-.661.065-.952-.323-1.71-.694-2.549z"/>
      <path fill="#fff" style="fill:var(--color1, #fff)" d="M4.299 22.319c-.677-.371-1.484-1.468-1.71-1.984-.161-.355-.419-.694-.677-1.016-.468-.581-1.048-1.177-1.565-1.548.016.419.048.839.129 1.355.242 1.097.758 1.936 1.936 2.452.468.194 1.387.694 1.887.742zM4.718 20.481c.097.371.145.645.161.936.016.548-.081.984-.016 1.468.048.387.194.726.403 1.032.194.29.371.5.581.694.436.371 1.161.79 1.758.919a4.428 4.428 0 0 1-.516-.742 3.833 3.833 0 0 1-.403-1.081 15.16 15.16 0 0 0-.194-.726c-.339-1.016-1.048-1.71-1.774-2.5z"/>
      <path fill="#fff" style="fill:var(--color1, #fff)" d="M7.621 25.545c-.871-.194-2.161-1.129-2.613-1.597-.323-.339-.71-.613-1.129-.887-.726-.484-1.597-.952-2.29-1.194.194.452.387.887.677 1.403.694 1.097 1.581 1.839 3.049 2.048.565.065 1.758.323 2.307.226zM7.364 23.432c.274.339.436.597.565.887.242.548.355 1 .629 1.468.226.371.532.661.887.919.323.226.613.387.919.516.613.242 1.565.436 2.242.387-.355-.21-.629-.387-.871-.597a4.21 4.21 0 0 1-.903-.968 12.117 12.117 0 0 0-.532-.677c-.774-.887-1.823-1.371-2.936-1.936z"/>
      <path fill="#fff" style="fill:var(--color1, #fff)" d="M12.637 27.61c-1 .065-2.774-.468-3.452-.806-.484-.242-1.016-.403-1.581-.549-.984-.258-2.097-.468-2.936-.5.403.387.79.774 1.323 1.194 1.21.887 2.468 1.355 4.113 1.113.629-.081 1.984-.178 2.532-.452zM26.254 4.98c-1.371-.871-2.807-2.21-5.226-3.113 1.774.016 4.581 1.129 5.226 3.113zM24.672 5.254c.29.129.5.21.742.274.452.113.823.145 1.21.274.307.097.564.258.774.436.193.161.339.323.451.484.226.323.419.839.419 1.226a3.741 3.741 0 0 0-1.338-.904 4.62 4.62 0 0 1-.565-.258c-.742-.387-1.177-.936-1.694-1.532z"/>
      <path fill="#fff" style="fill:var(--color1, #fff)" d="M28.285 7.964c0-.565-.516-1.516-.823-1.887a4.12 4.12 0 0 1-.516-.855c-.258-.532-.484-1.145-.549-1.613.323.194.661.403 1.016.677.774.629 1.21 1.306 1.097 2.226-.032.371-.032 1.145-.226 1.452zM26.917 8.06c.258.177.451.29.661.387.419.177.774.274 1.113.468.274.145.484.339.661.565.161.194.258.371.339.548.145.355.226.903.129 1.274a3.51 3.51 0 0 0-.403-.532 2.96 2.96 0 0 0-.694-.581 13.545 13.545 0 0 1-.5-.339c-.629-.5-.935-1.129-1.306-1.79z"/>
      <path fill="#fff" style="fill:var(--color1, #fff)" d="M29.836 11.319c.129-.548-.161-1.581-.387-1.984a3.612 3.612 0 0 1-.306-.919c-.129-.565-.21-1.194-.177-1.661.274.258.548.5.855.839.613.742.887 1.484.581 2.371-.113.339-.306 1.081-.565 1.355zM28.253 10.867c.21.258.371.435.565.597.371.306.726.5 1.016.79.242.242.387.5.5.774.097.258.145.468.161.677a2.72 2.72 0 0 1-.323 1.403 5.528 5.528 0 0 0-.226-.677 3.468 3.468 0 0 0-.532-.806c-.145-.177-.29-.339-.403-.5-.516-.71-.613-1.452-.758-2.258z"/>
      <path fill="#fff" style="fill:var(--color1, #fff)" d="M30.172 15.126c.339-.548.403-1.726.323-2.21a4.74 4.74 0 0 1 0-1.065c.065-.645.226-1.339.435-1.823.194.339.403.677.597 1.113.387.968.403 1.823-.258 2.678-.258.339-.726 1.081-1.097 1.307zM28.883 14.173c.145.29.258.5.419.694.29.371.597.629.823.984.177.29.274.565.306.871.032.274.032.5-.016.71-.081.436-.339 1-.678 1.339a3.34 3.34 0 0 0-.387-1.629 5.972 5.972 0 0 1-.274-.581c-.339-.79-.242-1.548-.193-2.387z"/>
      <path fill="#fff" style="fill:var(--color1, #fff)" d="M29.738 18.787c.484-.484.839-1.645.871-2.161.032-.355.145-.71.274-1.065.226-.629.549-1.29.887-1.742.113.387.242.758.323 1.226.145 1.032-.049 1.887-.936 2.629-.339.306-1 .952-1.419 1.113zM28.821 17.335c.032.339.081.581.161.839.161.468.371.823.484 1.242a2.02 2.02 0 0 1-.016.984c-.065.29-.161.516-.274.726-.242.419-.726.936-1.194 1.194.097-.29.161-.516.21-.758a3.062 3.062 0 0 0 0-1.016c-.032-.242-.065-.452-.065-.661-.065-.952.323-1.71.694-2.549z"/>
      <path fill="#fff" style="fill:var(--color1, #fff)" d="M27.966 22.319c.678-.371 1.484-1.468 1.71-1.984.161-.355.419-.694.677-1.016.468-.581 1.049-1.177 1.565-1.548a11.1 11.1 0 0 1-.129 1.355c-.242 1.097-.758 1.936-1.935 2.452-.468.194-1.387.694-1.887.742zM27.545 20.481a4.526 4.526 0 0 0-.161.936c-.016.548.081.984.016 1.468a2.325 2.325 0 0 1-.403 1.032c-.193.29-.371.5-.581.694-.436.371-1.161.79-1.758.919.226-.274.387-.5.516-.742.21-.371.323-.726.403-1.081.065-.274.129-.5.194-.726.339-1.016 1.048-1.71 1.774-2.5z"/>
      <path fill="#fff" style="fill:var(--color1, #fff)" d="M24.641 25.545c.871-.194 2.161-1.129 2.613-1.597.323-.339.71-.613 1.129-.887.726-.484 1.597-.952 2.29-1.194-.194.452-.387.887-.677 1.403-.694 1.097-1.581 1.839-3.049 2.048-.565.065-1.758.323-2.307.226zM24.901 23.432a3.832 3.832 0 0 0-.565.887c-.242.548-.355 1-.629 1.468-.226.371-.532.661-.887.919a4.86 4.86 0 0 1-.919.516c-.613.242-1.565.436-2.242.387.355-.21.629-.387.871-.597a4.21 4.21 0 0 0 .903-.968c.177-.242.355-.468.532-.677.774-.887 1.823-1.371 2.936-1.936z"/>
      <path fill="#fff" style="fill:var(--color1, #fff)" d="M19.625 27.61c1 .065 2.774-.468 3.452-.806.484-.242 1.016-.403 1.581-.549.984-.258 2.097-.468 2.936-.5-.403.387-.79.774-1.323 1.194-1.21.887-2.468 1.355-4.113 1.113-.629-.081-1.984-.178-2.532-.452zM19.867 10.667H12.4a1.87 1.87 0 0 0-1.867 1.867v3.879A1.867 1.867 0 0 0 12.4 18.28h7.467a1.867 1.867 0 0 0 1.867-1.867v-3.879a1.87 1.87 0 0 0-1.867-1.867zm-1.968 4.454-2.091 1.206a.74.74 0 0 1-.746 0 .74.74 0 0 1-.374-.646v-2.412a.745.745 0 0 1 1.12-.649l2.091 1.21a.737.737 0 0 1 .373.646.75.75 0 0 1-.373.646z"/>
      <path fill="#fff" style="fill:var(--color1, #fff)" d="M15.435 15.219c0 .205.222.334.4.231l1.29-.744a.267.267 0 0 0 0-.462l-1.29-.744a.267.267 0 0 0-.4.231v1.488zM14.304 18.886a.363.363 0 0 0-.264.109.378.378 0 0 0-.109.264v.261h-1.264a.373.373 0 1 0 0 .746h1.264v.261a.373.373 0 1 0 .746 0v-.261H19.6a.373.373 0 1 0 0-.746h-4.923v-.261a.363.363 0 0 0-.109-.264.378.378 0 0 0-.264-.109z"/>
    </symbol>
    <symbol id="icon-Icon-label-4" viewBox="0 0 30 32">
      <path fill="#fff" style="fill:var(--color1, #fff)" d="M11.524 27.529s6.549.032 8.71 1.839l-1.129.403s-3.065-2.178-8.404-1.774c.274-.242.823-.468.823-.468z"/>
      <path fill="#fff" style="fill:var(--color1, #fff)" d="M20.735 27.529s-6.549.032-8.71 1.839l1.129.403s3.065-2.178 8.404-1.774c-.274-.242-.823-.468-.823-.468zM6.008 4.98c1.371-.887 2.79-2.21 5.226-3.113-1.774.016-4.581 1.129-5.226 3.113zM7.589 5.254c-.29.129-.5.21-.742.274-.452.113-.823.145-1.21.274a2.245 2.245 0 0 0-.774.436 2.47 2.47 0 0 0-.452.484c-.226.323-.419.839-.419 1.226.177-.177.339-.323.516-.452.274-.194.532-.339.806-.452a4.62 4.62 0 0 0 .565-.258c.758-.387 1.194-.936 1.71-1.532z"/>
      <path fill="#fff" style="fill:var(--color1, #fff)" d="M3.976 7.964c0-.565.516-1.516.823-1.887a4.12 4.12 0 0 0 .516-.855c.258-.532.484-1.145.548-1.613-.323.194-.661.403-1.016.677-.774.629-1.21 1.306-1.097 2.226.032.371.032 1.145.226 1.452zM5.347 8.06c-.258.177-.452.29-.661.387-.419.177-.774.274-1.113.468a2.046 2.046 0 0 0-.661.565 2.343 2.343 0 0 0-.339.548c-.145.355-.226.903-.129 1.274a3.51 3.51 0 0 1 .403-.532 2.98 2.98 0 0 1 .694-.581c.177-.113.339-.226.5-.339.629-.5.936-1.129 1.306-1.79z"/>
      <path fill="#fff" style="fill:var(--color1, #fff)" d="M2.428 11.319c-.129-.548.161-1.581.387-1.984.145-.29.242-.597.306-.919.129-.565.21-1.194.177-1.661-.274.258-.548.5-.855.839-.613.742-.887 1.484-.581 2.371.113.339.306 1.081.565 1.355zM4.008 10.867a4.13 4.13 0 0 1-.565.597c-.371.306-.726.5-1.016.79-.242.242-.387.5-.5.774a2.393 2.393 0 0 0-.161.677 2.72 2.72 0 0 0 .323 1.403c.065-.258.145-.468.226-.677a3.5 3.5 0 0 1 .532-.806c.145-.177.29-.339.403-.5.516-.71.613-1.452.758-2.258z"/>
      <path fill="#fff" style="fill:var(--color1, #fff)" d="M2.088 15.126c-.339-.548-.403-1.726-.323-2.21a4.74 4.74 0 0 0 0-1.065c-.065-.645-.226-1.339-.435-1.823-.194.339-.403.677-.597 1.113-.387.968-.403 1.823.258 2.678.258.339.726 1.081 1.097 1.307zM3.379 14.173c-.145.29-.258.5-.419.694-.29.371-.597.629-.823.984-.177.29-.274.565-.306.871-.032.274-.032.5.016.71.081.436.339 1 .677 1.339a3.34 3.34 0 0 1 .388-1.629c.113-.21.194-.387.274-.581.339-.79.242-1.548.194-2.387z"/>
      <path fill="#fff" style="fill:var(--color1, #fff)" d="M2.525 18.787c-.484-.484-.839-1.645-.871-2.161-.032-.355-.145-.71-.274-1.065-.226-.629-.548-1.29-.887-1.742-.113.387-.242.758-.323 1.226-.129 1.048.065 1.903.936 2.645.339.29 1 .936 1.419 1.097zM3.445 17.335a3.895 3.895 0 0 1-.161.839c-.161.468-.371.823-.484 1.242a2.02 2.02 0 0 0 .016.984c.065.29.161.516.274.726.242.419.726.936 1.194 1.194a6.153 6.153 0 0 1-.21-.758 3.062 3.062 0 0 1 0-1.016c.032-.242.064-.452.064-.661.065-.952-.323-1.71-.694-2.549z"/>
      <path fill="#fff" style="fill:var(--color1, #fff)" d="M4.299 22.319c-.677-.371-1.484-1.468-1.71-1.984-.161-.355-.419-.694-.677-1.016-.468-.581-1.048-1.177-1.565-1.548.016.419.048.839.129 1.355.242 1.097.758 1.936 1.936 2.452.468.194 1.387.694 1.887.742zM4.718 20.481c.097.371.145.645.161.936.016.548-.081.984-.016 1.468.048.387.194.726.403 1.032.194.29.371.5.581.694.436.371 1.161.79 1.758.919a4.428 4.428 0 0 1-.516-.742 3.833 3.833 0 0 1-.403-1.081 15.16 15.16 0 0 0-.194-.726c-.339-1.016-1.048-1.71-1.774-2.5z"/>
      <path fill="#fff" style="fill:var(--color1, #fff)" d="M7.621 25.545c-.871-.194-2.161-1.129-2.613-1.597-.323-.339-.71-.613-1.129-.887-.726-.484-1.597-.952-2.29-1.194.194.452.387.887.677 1.403.694 1.097 1.581 1.839 3.049 2.048.565.065 1.758.323 2.307.226zM7.364 23.432c.274.339.436.597.565.887.242.548.355 1 .629 1.468.226.371.532.661.887.919.323.226.613.387.919.516.613.242 1.565.436 2.242.387-.355-.21-.629-.387-.871-.597a4.21 4.21 0 0 1-.903-.968 12.117 12.117 0 0 0-.532-.677c-.774-.887-1.823-1.371-2.936-1.936z"/>
      <path fill="#fff" style="fill:var(--color1, #fff)" d="M12.637 27.61c-1 .065-2.774-.468-3.452-.806-.484-.242-1.016-.403-1.581-.549-.984-.258-2.097-.468-2.936-.5.403.387.79.774 1.323 1.194 1.21.887 2.468 1.355 4.113 1.113.629-.081 1.984-.178 2.532-.452zM26.254 4.98c-1.371-.871-2.807-2.21-5.226-3.113 1.774.016 4.581 1.129 5.226 3.113zM24.672 5.254c.29.129.5.21.742.274.452.113.823.145 1.21.274.307.097.564.258.774.436.193.161.339.323.451.484.226.323.419.839.419 1.226a3.741 3.741 0 0 0-1.338-.904 4.62 4.62 0 0 1-.565-.258c-.742-.387-1.177-.936-1.694-1.532z"/>
      <path fill="#fff" style="fill:var(--color1, #fff)" d="M28.285 7.964c0-.565-.516-1.516-.823-1.887a4.12 4.12 0 0 1-.516-.855c-.258-.532-.484-1.145-.549-1.613.323.194.661.403 1.016.677.774.629 1.21 1.306 1.097 2.226-.032.371-.032 1.145-.226 1.452zM26.917 8.06c.258.177.451.29.661.387.419.177.774.274 1.113.468.274.145.484.339.661.565.161.194.258.371.339.548.145.355.226.903.129 1.274a3.51 3.51 0 0 0-.403-.532 2.96 2.96 0 0 0-.694-.581 13.545 13.545 0 0 1-.5-.339c-.629-.5-.935-1.129-1.306-1.79z"/>
      <path fill="#fff" style="fill:var(--color1, #fff)" d="M29.836 11.319c.129-.548-.161-1.581-.387-1.984a3.612 3.612 0 0 1-.306-.919c-.129-.565-.21-1.194-.177-1.661.274.258.548.5.855.839.613.742.887 1.484.581 2.371-.113.339-.306 1.081-.565 1.355zM28.253 10.867c.21.258.371.435.565.597.371.306.726.5 1.016.79.242.242.387.5.5.774.097.258.145.468.161.677a2.72 2.72 0 0 1-.323 1.403 5.528 5.528 0 0 0-.226-.677 3.468 3.468 0 0 0-.532-.806c-.145-.177-.29-.339-.403-.5-.516-.71-.613-1.452-.758-2.258zM28.883 14.173c.145.29.258.5.419.694.29.371.597.629.823.984.177.29.274.565.306.871.032.274.032.5-.016.71-.081.436-.339 1-.678 1.339a3.34 3.34 0 0 0-.387-1.629 5.972 5.972 0 0 1-.274-.581c-.339-.79-.242-1.548-.193-2.387zM28.821 17.335c.032.339.081.581.161.839.161.468.371.823.484 1.242a2.02 2.02 0 0 1-.016.984c-.065.29-.161.516-.274.726-.242.419-.726.936-1.194 1.194.097-.29.161-.516.21-.758a3.062 3.062 0 0 0 0-1.016c-.032-.242-.065-.452-.065-.661-.065-.952.323-1.71.694-2.549z"/>
      <path fill="#fff" style="fill:var(--color1, #fff)" d="M27.966 22.319c.678-.371 1.484-1.468 1.71-1.984.161-.355.419-.694.677-1.016.468-.581 1.049-1.177 1.565-1.548a11.1 11.1 0 0 1-.129 1.355c-.242 1.097-.758 1.936-1.935 2.452-.468.194-1.387.694-1.887.742zM27.545 20.481a4.526 4.526 0 0 0-.161.936c-.016.548.081.984.016 1.468a2.325 2.325 0 0 1-.403 1.032c-.193.29-.371.5-.581.694-.436.371-1.161.79-1.758.919.226-.274.387-.5.516-.742.21-.371.323-.726.403-1.081.065-.274.129-.5.194-.726.339-1.016 1.048-1.71 1.774-2.5z"/>
      <path fill="#fff" style="fill:var(--color1, #fff)" d="M24.641 25.545c.871-.194 2.161-1.129 2.613-1.597.323-.339.71-.613 1.129-.887.726-.484 1.597-.952 2.29-1.194-.194.452-.387.887-.677 1.403-.694 1.097-1.581 1.839-3.049 2.048-.565.065-1.758.323-2.307.226zM24.901 23.432a3.832 3.832 0 0 0-.565.887c-.242.548-.355 1-.629 1.468-.226.371-.532.661-.887.919a4.86 4.86 0 0 1-.919.516c-.613.242-1.565.436-2.242.387.355-.21.629-.387.871-.597a4.21 4.21 0 0 0 .903-.968c.177-.242.355-.468.532-.677.774-.887 1.823-1.371 2.936-1.936z"/>
      <path fill="#fff" style="fill:var(--color1, #fff)" d="M19.625 27.61c1 .065 2.774-.468 3.452-.806.484-.242 1.016-.403 1.581-.549.984-.258 2.097-.468 2.936-.5-.403.387-.79.774-1.323 1.194-1.21.887-2.468 1.355-4.113 1.113-.629-.081-1.984-.178-2.532-.452zM18.755 18.455c-.717 0-1.308.578-1.308 1.308 0 .717.578 1.308 1.308 1.308.717 0 1.308-.578 1.308-1.308-.013-.717-.591-1.308-1.308-1.308zM21.056 12.218c-.025 0-.063-.013-.101-.013h-7.922l-.126-.842a1.125 1.125 0 0 0-1.119-.968h-1.019a.504.504 0 0 0 0 1.006h1.019c.063 0 .113.05.126.113l.78 5.306a1.379 1.379 0 0 0 1.358 1.169h5.231c.654 0 1.22-.465 1.358-1.107l.817-4.087a.497.497 0 0 0-.402-.578zM15.548 19.7a1.3 1.3 0 0 0-1.295-1.245 1.315 1.315 0 0 0-1.257 1.358 1.289 1.289 0 0 0 1.283 1.245h.025c.717-.038 1.283-.641 1.245-1.358z"/>
    </symbol>
  </defs>
</svg>
