<svg aria-hidden="true" style="position:absolute;width:0;height:0;overflow:hidden" xmlns="http://www.w3.org/2000/svg">
  <defs>
    <symbol id="icon-burger" viewBox="0 0 32 32">
      <path d="M29 8H3a2 2 0 0 1 0-4h26a2 2 0 0 1 0 4zM29 28H3a2 2 0 0 1 0-4h26a2 2 0 0 1 0 4zM29 18H3a2 2 0 0 1 0-4h26a2 2 0 0 1 0 4z"/>
    </symbol>
    <symbol id="icon-logo" viewBox="0 0 75 32">
      <path d="M14.856 32c-4.875 0-8.577-1.037-11.107-3.111C1.25 26.815 0 24.019 0 20.5c0-.534.077-1.194.231-1.979L4.257 0h9.487l-3.98 18.286a5.928 5.928 0 0 0-.093 1.131c.031 1.131.494 2.137 1.388 3.016.895.848 2.16 1.272 3.795 1.272 1.79 0 3.224-.487 4.304-1.461 1.08-1.005 1.789-2.325 2.129-3.959l3.98-18.286h9.487l-4.026 18.474c-1.913 9.017-7.204 13.526-15.874 13.526zM68.197 32h-9.348l4.072-19.464L51.953 32h-4.165l-2.823-19.464L40.892 32h-9.348l6.803-32h12.588l2.129 15.081L61.764 0H75l-6.803 32z"/>
    </symbol>
    <symbol id="icon-pen" viewBox="0 0 32 32">
      <path d="M23.986 1.006a3 3 0 0 0-2.077.872l-2.301 2.299 6.254 6.254 2.3-2.299a3.024 3.024 0 0 0 0-4.251s-2.008-2.003-2.011-2.003a2.981 2.981 0 0 0-2.166-.872zm-5.794 4.588L3.875 19.911a3.018 3.018 0 0 0-.88 2.123v4.006a1.002 1.002 0 0 0 1.007 1.006l4.006-.008a2.998 2.998 0 0 0 2.115-.872l14.325-14.317-6.256-6.254zM3.9 29.048l-.002.002c-1.305.097-1.204 2.042.104 2.003h24.036c1.366.031 1.366-2.034 0-2.003H4.002c-.034-.002-.068-.003-.102-.002z"/>
    </symbol>
  </defs>
</svg>
