<svg aria-hidden="true" style="position:absolute;width:0;height:0;overflow:hidden" xmlns="http://www.w3.org/2000/svg">
  <defs>
    <symbol id="icon-plus" viewBox="0 0 32 32">
      <path d="M30 14H18V2a2 2 0 1 0-4 0v12H2a2 2 0 1 0 0 4h12v12a2 2 0 1 0 4 0V18h12a2 2 0 1 0 0-4z"/>
    </symbol>
    <symbol id="icon-browser" viewBox="0 0 32 32">
      <path d="M0 12v12a6.675 6.675 0 0 0 6.667 6.667h18.667A6.675 6.675 0 0 0 32.001 24V12h-32zm18.667 13.333H8a1.334 1.334 0 0 1 0-2.668h10.667a1.334 1.334 0 0 1 0 2.668zM24 20H8a1.334 1.334 0 0 1 0-2.668h16A1.334 1.334 0 0 1 24 20zm8-10.667V8a6.675 6.675 0 0 0-6.667-6.667H6.666A6.675 6.675 0 0 0-.001 8v1.333h32zM13.333 4a1.332 1.332 0 0 1 1.308 1.593 1.328 1.328 0 0 1-1.048 1.048 1.326 1.326 0 0 1-1.368-.567 1.337 1.337 0 0 1 .166-1.684c.251-.25.589-.391.943-.391zm-4 0a1.332 1.332 0 0 1 1.308 1.593 1.332 1.332 0 0 1-2.416.481 1.337 1.337 0 0 1 .166-1.684c.251-.25.589-.391.943-.391zm-4 0a1.332 1.332 0 0 1 1.308 1.593 1.332 1.332 0 0 1-2.416.481 1.337 1.337 0 0 1 .166-1.684c.251-.25.589-.391.943-.391z"/>
    </symbol>
    <symbol id="icon-commentsio" viewBox="0 0 32 32">
      <path d="M20.484 3.516A11.988 11.988 0 0 0 11.132.032C5.097.459 0 6.12 0 12.396v6.717a4.89 4.89 0 0 0 4.881 4.888h5.969c6.916 0 12.679-4.889 13.119-11.132a12.023 12.023 0 0 0-3.484-9.355l-.001.001zM12 19.334a1.668 1.668 0 1 1 .002-3.336A1.668 1.668 0 0 1 12 19.334zm1.929-6.494c-.596.328-.596.424-.596.495a1.333 1.333 0 1 1-2.666 0c0-1.744 1.384-2.505 1.975-2.831.387-.212.793-.713.669-1.421a1.336 1.336 0 0 0-1.057-1.057 1.32 1.32 0 0 0-1.109.288 1.327 1.327 0 0 0-.477 1.023 1.333 1.333 0 1 1-2.666 0c0-1.185.521-2.303 1.429-3.065s2.103-1.085 3.284-.871c1.612.281 2.939 1.607 3.223 3.223a4.022 4.022 0 0 1-2.008 4.219l.001-.001zM32 21.334v6.667a4 4 0 0 1-4 4h-6.667c-3.94 0-7.38-2.153-9.227-5.339l.053-.053c7.716-.589 13.96-6.325 14.469-13.552.023-.312.013-.621.016-.932l.017-.017c3.185 1.847 5.337 5.287 5.337 9.227z"/>
    </symbol>
    <symbol id="icon-folder-tree" viewBox="0 0 32 32">
      <path d="M13.333 10.667V9.334H2.666v10.667c0 2.205 1.795 4 4 4h6.667v-2.667c0-2.205 1.795-4 4-4h3.448c.712 0 1.381.277 1.885.781L24.551 20h3.448c2.205 0 4 1.795 4 4v4c0 2.205-1.795 4-4 4H17.332c-2.205 0-4-1.795-4-4v-1.333H6.665A6.675 6.675 0 0 1-.002 20V1.333c.008-1.744 2.66-1.743 2.667 0v5.333h10.667V3.999c0-2.205 1.795-4 4-4h3.448c.712 0 1.381.277 1.885.781l1.885 1.885h3.448c2.205 0 4 1.795 4 4v4c0 2.205-1.795 4-4 4H17.331c-2.205 0-4-1.795-4-4z"/>
    </symbol>
    <symbol id="icon-money-check-edit-1" viewBox="0 0 32 32">
      <path d="M17.693 25.973A5.778 5.778 0 0 0 16 30.06V32h1.94a5.78 5.78 0 0 0 4.087-1.693l9.076-9.076a3.065 3.065 0 0 0-4.333-4.333l-9.076 9.076zm-1.885-1.885 6.756-6.755h-2.563c-1.744-.008-1.743-2.66 0-2.667h5.304c1.825-1.584 4.684-1.771 6.696-.435V9.332a6.675 6.675 0 0 0-6.667-6.667H6.666A6.675 6.675 0 0 0-.001 9.332v13.333a6.675 6.675 0 0 0 6.667 6.667h6.703a8.376 8.376 0 0 1 2.439-5.245zm4.193-14.755h5.333c1.744.008 1.743 2.66 0 2.667h-5.333c-1.744-.008-1.743-2.66 0-2.667zm-10.668 16A1.333 1.333 0 0 1 8 24v-1.333h-.357a4.012 4.012 0 0 1-3.464-1.999 1.333 1.333 0 1 1 2.306-1.334c.239.411.681.667 1.156.667h3.024c1.329.087 1.923-2.067.475-2.347l-4.055-.676c-4.669-.865-3.664-7.671.913-7.644V8.001c.008-1.744 2.66-1.743 2.667 0v1.333h.357c1.423 0 2.751.767 3.464 2a1.333 1.333 0 1 1-2.306 1.334 1.34 1.34 0 0 0-1.156-.667H8c-1.329-.087-1.923 2.067-.475 2.347l4.055.676c4.669.865 3.664 7.671-.913 7.644v1.333c0 .736-.596 1.332-1.333 1.332z"/>
    </symbol>
    <symbol id="icon-plan" viewBox="0 0 32 32">
      <path d="M21.332 17.333v7.333c0 1.103.897 2 2 2h.912a3.987 3.987 0 0 1 3.755-2.667 4 4 0 0 1 0 8 3.987 3.987 0 0 1-3.755-2.667h-.912a4.672 4.672 0 0 1-4.667-4.667v-7.333h-1.333a1.332 1.332 0 1 1 0-2.666h1.333V7.333a4.672 4.672 0 0 1 4.667-4.667h.912a3.987 3.987 0 0 1 3.755-2.667 4 4 0 0 1 0 8 3.987 3.987 0 0 1-3.755-2.667h-.912c-1.103 0-2 .897-2 2v7.333h2.912a3.987 3.987 0 0 1 3.755-2.667 4 4 0 0 1 0 8 3.987 3.987 0 0 1-3.755-2.667h-2.912zm-6.314-3.838-1.311.755c.172.557.291 1.137.291 1.751s-.119 1.193-.291 1.751l1.311.755a1.333 1.333 0 0 1-1.331 2.309l-1.303-.751a5.99 5.99 0 0 1-3.052 1.775v1.495a1.332 1.332 0 1 1-2.666 0V21.84a5.961 5.961 0 0 1-3.052-1.775l-1.303.751a1.33 1.33 0 0 1-1.82-.489 1.332 1.332 0 0 1 .489-1.82l1.311-.755C2.119 17.195 2 16.615 2 16.001s.119-1.193.291-1.751L.98 13.495a1.33 1.33 0 0 1-.489-1.82 1.329 1.329 0 0 1 1.82-.489l1.303.751a5.99 5.99 0 0 1 3.052-1.775V8.667a1.332 1.332 0 1 1 2.666 0v1.495a5.961 5.961 0 0 1 3.052 1.775l1.303-.751a1.332 1.332 0 1 1 1.331 2.309zM9.998 16c0-1.103-.897-2-2-2s-2 .897-2 2 .897 2 2 2 2-.897 2-2z"/>
    </symbol>
    <symbol id="icon-magnite" viewBox="0 0 32 32">
      <path d="M32 8c0 4.412-3.588 8-8 8s-8-3.588-8-8 3.588-8 8-8 8 3.588 8 8zM21.334 5.333a2.666 2.666 0 1 0 5.334 0 2.666 2.666 0 1 0-5.334 0zm6.368 6.494a3.985 3.985 0 0 0-3.691-2.493h-.021a3.985 3.985 0 0 0-3.692 2.491c.96.931 2.264 1.509 3.704 1.509s2.74-.577 3.701-1.507h-.001zm-13.275 9.818-2.847 2.844a2.886 2.886 0 0 1-4.075 0 2.886 2.886 0 0 1 0-4.075l2.847-2.844-4.673-4.673L2.775 15.8c-3.7 3.699-3.7 9.72 0 13.419 1.792 1.793 4.176 2.78 6.711 2.78s4.917-.987 6.711-2.78l2.904-2.903-4.673-4.671zm6.559 2.788.933-.933a2 2 0 0 0 0-2.829l-1.844-1.844a2 2 0 0 0-2.828 0l-.935.933 4.673 4.673zm-8.747-8.746.933-.933a2 2 0 0 0 0-2.829l-1.844-1.844a2 2 0 0 0-2.828 0l-.935.933 4.673 4.673z"/>
    </symbol>
    <symbol id="icon-analyse" viewBox="0 0 32 32">
      <path d="M31.609 31.609a1.33 1.33 0 0 1-1.886 0l-7.959-7.959a13.27 13.27 0 0 1-8.432 3.016c-7.352 0-13.333-5.981-13.333-13.333S5.98 0 13.332 0c4.012 0 7.607 1.789 10.053 4.603l-8.157 9.408-2.571-2.571a2.722 2.722 0 0 0-2.032-.788 2.704 2.704 0 0 0-1.949.968l-4.368 5.241a1.331 1.331 0 0 0 1.024 2.186c.383 0 .761-.164 1.027-.48l4.416-5.244 2.571 2.571a2.748 2.748 0 0 0 2.007.789 2.71 2.71 0 0 0 1.944-.933l7.684-8.896a13.246 13.246 0 0 1 1.689 6.477c0 3.197-1.133 6.133-3.016 8.432l7.959 7.959a1.332 1.332 0 0 1 0 1.885l-.004.001zM29.001 2.197A1.334 1.334 0 0 0 26.982.453l-3.597 4.148a13.29 13.29 0 0 1 1.591 2.253l4.025-4.657z"/>
    </symbol>
    <symbol id="icon-price" viewBox="0 0 32 32">
      <path d="M28.699 11.047 18.58 1.174A4 4 0 0 0 15.209.039L6.025 1.295a1.333 1.333 0 1 0 .363 2.641l9.185-1.256c.408-.056.829.084 1.135.389l10.12 9.873c1.393 1.393 1.529 3.573.431 5.129-.312-.623-.697-1.216-1.215-1.733l-9.967-9.883a4.027 4.027 0 0 0-3.371-1.135L3.521 6.576a1.333 1.333 0 0 0-1.144 1.175l-1.02 9.221a3.984 3.984 0 0 0 1.152 3.271l9.888 9.804a6.615 6.615 0 0 0 4.712 1.952h.023a6.617 6.617 0 0 0 4.724-1.983l4.223-4.277c1.236-1.252 1.857-2.879 1.897-4.517l.769-.768c2.567-2.6 2.552-6.816-.043-9.409l-.004.001zM7.998 13.335a1.333 1.333 0 0 1-1.333-1.333c.008-1.744 2.659-1.743 2.667 0 0 .736-.597 1.333-1.333 1.333z"/>
    </symbol>
    <symbol id="icon-copy" viewBox="0 0 32 32">
      <path d="M19.994 1.333H5.327A2.675 2.675 0 0 0 2.66 4v17.333c0 .733.6 1.333 1.333 1.333s1.333-.6 1.333-1.333v-16C5.326 4.6 5.926 4 6.659 4h13.333c.733 0 1.333-.6 1.333-1.333s-.6-1.333-1.333-1.333zm5.333 5.334H10.66a2.675 2.675 0 0 0-2.667 2.667v18.667c0 1.467 1.2 2.667 2.667 2.667h14.667c1.467 0 2.667-1.2 2.667-2.667V9.334c0-1.467-1.2-2.667-2.667-2.667zM23.994 28h-12c-.733 0-1.333-.6-1.333-1.333v-16c0-.733.6-1.333 1.333-1.333h12c.733 0 1.333.6 1.333 1.333v16c0 .733-.6 1.333-1.333 1.333z"/>
    </symbol>
    <symbol id="icon-instagram" viewBox="0 0 32 32">
      <path d="M15.997 9.112c-3.798 0-6.887 3.09-6.887 6.887s3.09 6.887 6.887 6.887c3.798 0 6.887-3.09 6.887-6.887s-3.09-6.887-6.887-6.887z"/>
      <path d="M23.223 0H8.768C3.931 0-.004 3.935-.004 8.772v14.455c0 4.837 3.935 8.772 8.772 8.772h14.455c4.837 0 8.772-3.935 8.772-8.772V8.772C31.995 3.935 28.06 0 23.223 0zm-7.228 24.777c-4.84 0-8.777-3.937-8.777-8.777s3.937-8.777 8.777-8.777S24.772 11.16 24.772 16s-3.937 8.777-8.777 8.777zm9.302-15.412c-1.47 0-2.667-1.196-2.667-2.667s1.196-2.667 2.667-2.667c1.47 0 2.667 1.196 2.667 2.667s-1.196 2.667-2.667 2.667z"/>
    </symbol>
    <symbol id="icon-linkedin" viewBox="0 0 32 32">
      <path d="m31.991 32 .008-.001V20.263c0-5.741-1.236-10.164-7.948-10.164-3.227 0-5.392 1.771-6.276 3.449h-.093v-2.913h-6.364v21.364h6.627V21.42c0-2.785.528-5.479 3.977-5.479 3.399 0 3.449 3.179 3.449 5.657v10.401h6.62zM.526 10.635h6.635v21.364H.526V10.635zM3.837 0C1.716 0-.006 1.721-.006 3.843s1.721 3.879 3.843 3.879c2.121 0 3.843-1.757 3.843-3.879A3.846 3.846 0 0 0 3.837 0z"/>
    </symbol>
    <symbol id="icon-telegram" viewBox="0 0 32 32">
      <path d="m2.612 15.831 6.44 2.187 15.29-9.348c.222-.136.449.165.258.341L13.024 19.666l-.43 5.965a.493.493 0 0 0 .838.387l3.564-3.505 6.516 4.933a1.208 1.208 0 0 0 1.909-.703l4.537-20.6c.259-1.175-.893-2.167-2.017-1.736L2.579 14.119c-.796.305-.774 1.438.033 1.712z"/>
    </symbol>
    <symbol id="icon-arrow" viewBox="0 0 32 32">
      <path d="M32 16c0 8.837-7.163 16-16 16S0 24.837 0 16 7.163 0 16 0s16 7.163 16 16z"/>
      <path fill="none" stroke="#fff" style="stroke:var(--color1, #fff)" stroke-width="1.143" d="M14.297 13.693h4.529m0 0v4.529m0-4.529-5.133 5.133"/>
    </symbol>
    <symbol id="icon-burger" viewBox="0 0 32 32">
      <path d="M29 8H3a2 2 0 0 1 0-4h26a2 2 0 0 1 0 4zM29 28H3a2 2 0 0 1 0-4h26a2 2 0 0 1 0 4zM29 18H3a2 2 0 0 1 0-4h26a2 2 0 0 1 0 4z"/>
    </symbol>
    <symbol id="icon-logo" viewBox="0 0 75 32">
      <path d="M14.856 32c-4.875 0-8.577-1.037-11.107-3.111C1.25 26.815 0 24.019 0 20.5c0-.534.077-1.194.231-1.979L4.257 0h9.487l-3.98 18.286a5.928 5.928 0 0 0-.093 1.131c.031 1.131.494 2.137 1.388 3.016.895.848 2.16 1.272 3.795 1.272 1.79 0 3.224-.487 4.304-1.461 1.08-1.005 1.789-2.325 2.129-3.959l3.98-18.286h9.487l-4.026 18.474c-1.913 9.017-7.204 13.526-15.874 13.526zM68.197 32h-9.348l4.072-19.464L51.953 32h-4.165l-2.823-19.464L40.892 32h-9.348l6.803-32h12.588l2.129 15.081L61.764 0H75l-6.803 32z"/>
    </symbol>
    <symbol id="icon-pen" viewBox="0 0 32 32">
      <path d="M23.986 1.006a3 3 0 0 0-2.077.872l-2.301 2.299 6.254 6.254 2.3-2.299a3.024 3.024 0 0 0 0-4.251s-2.008-2.003-2.011-2.003a2.981 2.981 0 0 0-2.166-.872zm-5.794 4.588L3.875 19.911a3.018 3.018 0 0 0-.88 2.123v4.006a1.002 1.002 0 0 0 1.007 1.006l4.006-.008a2.998 2.998 0 0 0 2.115-.872l14.325-14.317-6.256-6.254zM3.9 29.048l-.002.002c-1.305.097-1.204 2.042.104 2.003h24.036c1.366.031 1.366-2.034 0-2.003H4.002c-.034-.002-.068-.003-.102-.002z"/>
    </symbol>
    <symbol id="icon-arrow-up-right" viewBox="0 0 32 32">
      <path d="M7.414 27.414 24 10.828V18a2 2 0 1 0 4 0V6a2 2 0 0 0-2-1.999V4H14a2 2 0 1 0 0 4h7.172L4.586 24.586C4.195 24.976 4 25.488 4 26s.195 1.024.586 1.414a2 2 0 0 0 2.828 0z"/>
    </symbol>
  </defs>
</svg>
