<svg aria-hidden="true" style="position:absolute;width:0;height:0;overflow:hidden" xmlns="http://www.w3.org/2000/svg">
  <defs>
    <symbol id="icon-copy" viewBox="0 0 32 32">
      <path d="M19.994 1.333H5.327A2.675 2.675 0 0 0 2.66 4v17.333c0 .733.6 1.333 1.333 1.333s1.333-.6 1.333-1.333v-16C5.326 4.6 5.926 4 6.659 4h13.333c.733 0 1.333-.6 1.333-1.333s-.6-1.333-1.333-1.333zm5.333 5.334H10.66a2.675 2.675 0 0 0-2.667 2.667v18.667c0 1.467 1.2 2.667 2.667 2.667h14.667c1.467 0 2.667-1.2 2.667-2.667V9.334c0-1.467-1.2-2.667-2.667-2.667zM23.994 28h-12c-.733 0-1.333-.6-1.333-1.333v-16c0-.733.6-1.333 1.333-1.333h12c.733 0 1.333.6 1.333 1.333v16c0 .733-.6 1.333-1.333 1.333z"/>
    </symbol>
    <symbol id="icon-instagram" viewBox="0 0 32 32">
      <path d="M15.997 9.112c-3.798 0-6.887 3.09-6.887 6.887s3.09 6.887 6.887 6.887c3.798 0 6.887-3.09 6.887-6.887s-3.09-6.887-6.887-6.887z"/>
      <path d="M23.223 0H8.768C3.931 0-.004 3.935-.004 8.772v14.455c0 4.837 3.935 8.772 8.772 8.772h14.455c4.837 0 8.772-3.935 8.772-8.772V8.772C31.995 3.935 28.06 0 23.223 0zm-7.228 24.777c-4.84 0-8.777-3.937-8.777-8.777s3.937-8.777 8.777-8.777S24.772 11.16 24.772 16s-3.937 8.777-8.777 8.777zm9.302-15.412c-1.47 0-2.667-1.196-2.667-2.667s1.196-2.667 2.667-2.667c1.47 0 2.667 1.196 2.667 2.667s-1.196 2.667-2.667 2.667z"/>
    </symbol>
    <symbol id="icon-linkedin" viewBox="0 0 32 32">
      <path d="m31.991 32 .008-.001V20.263c0-5.741-1.236-10.164-7.948-10.164-3.227 0-5.392 1.771-6.276 3.449h-.093v-2.913h-6.364v21.364h6.627V21.42c0-2.785.528-5.479 3.977-5.479 3.399 0 3.449 3.179 3.449 5.657v10.401h6.62zM.526 10.635h6.635v21.364H.526V10.635zM3.837 0C1.716 0-.006 1.721-.006 3.843s1.721 3.879 3.843 3.879c2.121 0 3.843-1.757 3.843-3.879A3.846 3.846 0 0 0 3.837 0z"/>
    </symbol>
    <symbol id="icon-telegram" viewBox="0 0 32 32">
      <path d="m2.612 15.831 6.44 2.187 15.29-9.348c.222-.136.449.165.258.341L13.024 19.666l-.43 5.965a.493.493 0 0 0 .838.387l3.564-3.505 6.516 4.933a1.208 1.208 0 0 0 1.909-.703l4.537-20.6c.259-1.175-.893-2.167-2.017-1.736L2.579 14.119c-.796.305-.774 1.438.033 1.712z"/>
    </symbol>
    <symbol id="icon-arrow" viewBox="0 0 32 32">
      <path d="M32 16c0 8.837-7.163 16-16 16S0 24.837 0 16 7.163 0 16 0s16 7.163 16 16z"/>
      <path fill="none" stroke="#fff" style="stroke:var(--color1, #fff)" stroke-width="1.143" d="M14.297 13.693h4.529m0 0v4.529m0-4.529-5.133 5.133"/>
    </symbol>
    <symbol id="icon-burger" viewBox="0 0 32 32">
      <path d="M29 8H3a2 2 0 0 1 0-4h26a2 2 0 0 1 0 4zM29 28H3a2 2 0 0 1 0-4h26a2 2 0 0 1 0 4zM29 18H3a2 2 0 0 1 0-4h26a2 2 0 0 1 0 4z"/>
    </symbol>
    <symbol id="icon-logo" viewBox="0 0 75 32">
      <path d="M14.856 32c-4.875 0-8.577-1.037-11.107-3.111C1.25 26.815 0 24.019 0 20.5c0-.534.077-1.194.231-1.979L4.257 0h9.487l-3.98 18.286a5.928 5.928 0 0 0-.093 1.131c.031 1.131.494 2.137 1.388 3.016.895.848 2.16 1.272 3.795 1.272 1.79 0 3.224-.487 4.304-1.461 1.08-1.005 1.789-2.325 2.129-3.959l3.98-18.286h9.487l-4.026 18.474c-1.913 9.017-7.204 13.526-15.874 13.526zM68.197 32h-9.348l4.072-19.464L51.953 32h-4.165l-2.823-19.464L40.892 32h-9.348l6.803-32h12.588l2.129 15.081L61.764 0H75l-6.803 32z"/>
    </symbol>
    <symbol id="icon-pen" viewBox="0 0 32 32">
      <path d="M23.986 1.006a3 3 0 0 0-2.077.872l-2.301 2.299 6.254 6.254 2.3-2.299a3.024 3.024 0 0 0 0-4.251s-2.008-2.003-2.011-2.003a2.981 2.981 0 0 0-2.166-.872zm-5.794 4.588L3.875 19.911a3.018 3.018 0 0 0-.88 2.123v4.006a1.002 1.002 0 0 0 1.007 1.006l4.006-.008a2.998 2.998 0 0 0 2.115-.872l14.325-14.317-6.256-6.254zM3.9 29.048l-.002.002c-1.305.097-1.204 2.042.104 2.003h24.036c1.366.031 1.366-2.034 0-2.003H4.002c-.034-.002-.068-.003-.102-.002z"/>
    </symbol>
  </defs>
</svg>
