<svg width="21" height="21" viewBox="0 0 21 21" fill="none" xmlns="http://www.w3.org/2000/svg">
<mask id="mask0_2017_3394" style="mask-type:alpha" maskUnits="userSpaceOnUse" x="0" y="1" width="21" height="18">
<path fill-rule="evenodd" clip-rule="evenodd" d="M21 1.3125H0V18.375H21V1.3125ZM7.75 9.84375C7.75 10.4982 7.19036 11.0286 6.5 11.0286C5.80964 11.0286 5.25 10.4982 5.25 9.84375C5.25 9.18931 5.80964 8.65885 6.5 8.65885C7.19036 8.65885 7.75 9.18931 7.75 9.84375ZM11.75 9.84375C11.75 10.4982 11.1904 11.0286 10.5 11.0286C9.8096 11.0286 9.25 10.4982 9.25 9.84375C9.25 9.18931 9.8096 8.65885 10.5 8.65885C11.1904 8.65885 11.75 9.18931 11.75 9.84375ZM14.5 11.0286C15.1904 11.0286 15.75 10.4982 15.75 9.84375C15.75 9.18931 15.1904 8.65885 14.5 8.65885C13.8096 8.65885 13.25 9.18931 13.25 9.84375C13.25 10.4982 13.8096 11.0286 14.5 11.0286Z" fill="#D9D9D9"/>
</mask>
<g mask="url(#mask0_2017_3394)">
<path d="M1.24219 8.65723C1.24219 5.51611 3.92848 2.96973 7.24219 2.96973H13.7422C17.0559 2.96973 19.7422 5.51611 19.7422 8.65723V11.027C19.7422 14.1681 17.0559 16.7145 13.7422 16.7145H1.24219V8.65723Z" fill="#1D1D1B" stroke="#1D1D1B" stroke-width="1.5" stroke-linejoin="round"/>
</g>
</svg>
