<svg width="335" height="429" viewBox="0 0 335 429" fill="none" xmlns="http://www.w3.org/2000/svg">
<path d="M0.5 394.917V18.0276C0.5 13.9968 0.501062 11.024 0.807496 8.74477C1.112 6.47992 1.70976 4.97495 2.84919 3.83552C3.98862 2.69608 5.4936 2.09832 7.75844 1.79382C10.0377 1.48739 13.0105 1.48633 17.0413 1.48633H226.15C228.574 1.48633 230.356 1.48689 231.781 1.62794C233.195 1.76789 234.217 2.0433 235.126 2.57102C236.035 3.09874 236.781 3.85028 237.603 5.00893C238.432 6.17658 239.315 7.72396 240.517 9.82928L249.372 25.3469L249.385 25.3708C250.571 27.4474 251.478 29.0378 252.339 30.2504C253.209 31.4767 254.053 32.3497 255.129 32.9743C256.205 33.5989 257.381 33.8996 258.878 34.0478C260.358 34.1942 262.189 34.1942 264.58 34.1942H264.607H317.959C321.99 34.1942 324.962 34.1953 327.242 34.5017C329.506 34.8062 331.011 35.404 332.151 36.5434C333.29 37.6828 333.888 39.1878 334.193 41.4527C334.499 43.7319 334.5 46.7047 334.5 50.7355V394.917C334.5 402.965 334.499 408.95 333.881 413.55C333.264 418.135 332.042 421.268 329.655 423.655C327.268 426.042 324.135 427.264 319.55 427.881C314.95 428.499 308.965 428.5 300.917 428.5H34.0825C26.0351 428.5 20.0498 428.499 15.4503 427.881C10.8651 427.264 7.73207 426.042 5.34482 423.655C2.95757 421.268 1.7359 418.135 1.11945 413.55C0.501062 408.95 0.5 402.965 0.5 394.917Z" fill="white" stroke="#E2E2E2"/>
</svg>
